<svg id="圖層_1" data-name="圖層 1" xmlns="http://www.w3.org/2000/svg" viewBox="0 0 299.43 110.12"><defs><style>.cls-1{fill:#c9161d;}.cls-2{fill:#fff;}</style></defs><rect class="cls-1" width="299.43" height="110.12"/><path class="cls-2" d="M72.6,16.72c1.59,4.63-4.86,6.14-7.84,7.36-1,.42-2.06.85-3.07,1.32-.7.32-1.33.77-2,1.05a12.86,12.86,0,0,1-2.12.52c-1.59.35-3.17.75-4.75,1.17-3.16.86-6.29,1.82-9.43,2.72q-2.68.78-5.4,1.46a7.46,7.46,0,0,1-5.52-1c-1.54-.91-1.64-2.35-2.35-3.84a1.72,1.72,0,0,1,.39-2.16c.18-.16,1-.11,1.23-.15L32.94,25c.81-.13,1.62-.28,2.44-.4s1.63-.23,2.45-.28,1.65.16,2.44-.37a19.86,19.86,0,0,1,2.59-1.54,21.57,21.57,0,0,1,5.63-1.54c.68-.11,1.36-.2,2-.29a6.58,6.58,0,0,0,1.09-.08c.41-.12.52-.34.85-.6.69-.52,1.64-.54,2.33-1.06,2-1.56,4.55-2.15,6.11-4.1a6.72,6.72,0,0,1,4-1.39,7.94,7.94,0,0,1,4.4.56c1.27.7,2.82,1.36,3.32,2.85"/><path class="cls-2" d="M125.9,40.74a8.51,8.51,0,0,0,.38-2.29c0-.8-.47-1.49-.53-2.28s.31-1.33-.43-1.67c-1.56-1.11-3,.65-4.55.91a18,18,0,0,0-3.31,2.66c-.75.64-1.69,1-2.49,1.54s-1.37,1.26-2.12,1.82c-1.6,1.2-3.48,2-5.15,3.08-1.41.94-4.59.57-6.14.27-2.82-.54-5.29-1.94-7.91-3a20,20,0,0,1-3.39-1.49c-1.2-.77-1.87-2.13-3.07-2.93S85,36,85.34,34.5c1-1,2.34-1.24,3.64-1.56,4.48-.85,9.36-.2,13.72-1.69,2.46-.65,5.07-1.24,7.47-2.08.63-.22,1.31-.54,2-.76A15.49,15.49,0,0,0,114,27.28c1.49-.75,3.07-.31,4.58-.72,2.12-.58,4.22-1.23,6.31-1.9,1.22-.4,2.4-.9,3.65-1.19a8.54,8.54,0,0,0,2.91-.78c2.14-1.38,4.85-.77,7.11-1.78a38.07,38.07,0,0,1,6.11-2.2,8.49,8.49,0,0,1,3.25-.25c1.84.24,3.74.7,5.57,1.08A14.88,14.88,0,0,1,158,20.91a4.32,4.32,0,0,1,1.75,1.89,5.32,5.32,0,0,1-.69,2.88c-.22.45-.47.89-.72,1.33-.78,1.42-2.05,1.75-3.52,2.15a9.23,9.23,0,0,1-4.52.19,5.66,5.66,0,0,1-2.26-1.09c-2.58-1.65-5.74-1.19-8.54-.46-.39.1-.77.21-1.15.34a3.52,3.52,0,0,0-1.13.47,6.13,6.13,0,0,1-1,.66c-.94.5-1.75.93-1.75,2.09,0,1.37-.23,3,.33,4.24,1.23,2.61-.39,5.2.78,7.81.52,3.51,1.56,8.45,1.43,12.47a117,117,0,0,0,1.37,17.94c.21,1.25.6,2.46.89,3.69.18.76.23,1.56.41,2.32a15.54,15.54,0,0,1,.71,4.59,54.87,54.87,0,0,1-.6,5.86c-.31,2.15-1,4.25-3.11,5.19-2.09,2.3-5.8,1.86-8.45,1a7.59,7.59,0,0,1-3.14-3,7.66,7.66,0,0,1-.47-2.09c-.41-1.79-1.15-3.48-.55-5.34,1.3-15,2.6-29.12,1.82-44"/><path class="cls-2" d="M53.22,34.4a17.48,17.48,0,0,1,2.67,4.81,2,2,0,0,0,2.37.37,7.55,7.55,0,0,0,2.21-.92c.63-.51,1.15-1.19,1.76-1.73a12.75,12.75,0,0,1,4.41-2.82,7.56,7.56,0,0,1,3.1-.36c1.69.65,3.83.58,4.68,2.34a3.85,3.85,0,0,1,.19,3.57c-1.49,3.06-5.2,4.17-7.8,6.11-2.08,1.11-4.87,1.89-5.91,4.23-.07,3.71,2.92,6.69,5.26,8.84,3.58,3.71,6.89,9.36,11.7,11.57a20,20,0,0,1,3.8,3,15.62,15.62,0,0,0,2,1.47c.82.47,1.71.65,2.5,1.18a10.6,10.6,0,0,1,2.44,1.54c.26.3.69.36,1,.54.7.37,1.17,1.12,2,1.29a5.41,5.41,0,0,1,1.27.18,8.71,8.71,0,0,1,1.2.81,29,29,0,0,0,5.71,3.05c.79.29,1.65.33,2.43.63a9.19,9.19,0,0,1,1.88,1.34c1.11.77,2.61,1.47,3.14,2.81a3.32,3.32,0,0,1-.67,2.87c-.81,1-2.27,1.23-3.45,1.41s-2.42.74-3.62.88c-.66.07-1.34.06-2,.11-1.42.11-2.84.26-4.27.4a73.58,73.58,0,0,1-8.65.54c-1.58,0-3.44.21-4.87-.61a53.72,53.72,0,0,1-5.5-4.17c-2.35-1.79-4-4.27-5.64-6.7s-3.44-5.11-5.21-7.63c-1.43-2-2.86-4.39-4.8-6-.69-.56-1.14-1.35-1.82-1.93a15.68,15.68,0,0,1-1.63-1.63,5.91,5.91,0,0,0-3.81-2.38,9.3,9.3,0,0,0-1.29,3c-.16.73-.13,1.49-.25,2.23s-.33,1.2-.45,1.81a12.26,12.26,0,0,1-.94,4,8,8,0,0,0-.83,2.15A16.67,16.67,0,0,1,46.67,79c-.18.43-.47.81-.66,1.24-.36.78-.55,1.61-.95,2.39s-1,1.71-1.5,2.52a33.3,33.3,0,0,1-3.72,4.57c-.76.8-1.56,1.56-2.39,2.29a13.55,13.55,0,0,1-2,1.66,11.73,11.73,0,0,1-2.47.89A20.4,20.4,0,0,1,27.71,96a6.07,6.07,0,0,1-3.22-.8,15.21,15.21,0,0,0-1.64-.37A6.82,6.82,0,0,1,21.26,94a7,7,0,0,1-1.51-1.41,2.4,2.4,0,0,1-.47-1c-.11-.79,0-1.06-.47-1.72-.64-.86-.3-1.43-.48-2.36A12.4,12.4,0,0,1,18,86.17c-.06-.74.57-1.33,1-1.88a3.65,3.65,0,0,1,1.63-1.53,6.43,6.43,0,0,1,3-.08,4.16,4.16,0,0,1,1.44.56c.71.44,1,1.1,1.93.57.67-.39,1.07-1.11,1.65-1.61s.61-1,1-1.44A14.14,14.14,0,0,0,31,79.24a12.56,12.56,0,0,0,1.93-3.7c2.34-2.47,2.6-6,1.69-9.36-2.4-.19-4.94,1-7.47.2-1.69-1.23-4.16-1.88-5-3.77a8.1,8.1,0,0,1-2.34-4.55c.72-2,3.45-1.37,5-1.69,1.43-.58,3.12-.72,4.55-1.43.8-.4,1.75-.53,2.58-1s1.57-1,2.34-1.47a16.28,16.28,0,0,1,2.39-1.38c.89-.41,1.89-.54,2.76-1a14.29,14.29,0,0,0,2.11-1.52A5.22,5.22,0,0,0,43.73,44a15.3,15.3,0,0,1-.37-1.86,10.25,10.25,0,0,1,.27-2,18.79,18.79,0,0,0,.37-2c.11-1-.14-1.67.46-2.56a4.74,4.74,0,0,1,2.2-1.78A6.61,6.61,0,0,1,49,33.75c.6,0,1.37-.42,2-.25.36.1.61.42,1,.52a2.73,2.73,0,0,1,1.25.38"/><path class="cls-2" d="M188,66.82l-.22,0a2.18,2.18,0,0,0-1-1.26,3.4,3.4,0,0,0-1.81-.45,3,3,0,0,0-2.55,1.15,5.07,5.07,0,0,0-.92,3.23,5.39,5.39,0,0,0,.93,3.41,3.26,3.26,0,0,0,2.71,1.18,4.26,4.26,0,0,0,1.54-.3,4.51,4.51,0,0,0,1.4-.83l.19,0-.35,1.27a6.23,6.23,0,0,1-1.52.53,7.41,7.41,0,0,1-1.66.18,5.75,5.75,0,0,1-4.15-1.43,5.3,5.3,0,0,1-1.48-4,5,5,0,0,1,1.6-3.9A6.09,6.09,0,0,1,185,64.22a7.27,7.27,0,0,1,1.68.19,8.5,8.5,0,0,1,1.7.57,7.37,7.37,0,0,0-.23.87A7,7,0,0,0,188,66.82Z"/><path class="cls-2" d="M189,71.18a3.49,3.49,0,0,1,3.81-3.84,3.79,3.79,0,0,1,2.81,1,3.86,3.86,0,0,1,1,2.84A3.49,3.49,0,0,1,192.8,75a3.76,3.76,0,0,1-2.8-1A3.82,3.82,0,0,1,189,71.18Zm2.23,0a5.81,5.81,0,0,0,.36,2.43,1.25,1.25,0,0,0,1.2.71,1.27,1.27,0,0,0,1.22-.71,5.78,5.78,0,0,0,.37-2.43,5.83,5.83,0,0,0-.37-2.44,1.38,1.38,0,0,0-2.42,0A5.89,5.89,0,0,0,191.24,71.18Z"/><path class="cls-2" d="M198,74.81c0-.81,0-1.52.07-2.13s0-1.12,0-1.51,0-.9,0-1.5,0-1.31-.07-2.13l.5,0h1.13l.48,0v1a3.18,3.18,0,0,1,1-.89,2.59,2.59,0,0,1,1.23-.28,2.28,2.28,0,0,1,1.3.36,2.17,2.17,0,0,1,.81,1.05,3,3,0,0,1,1-1.06,2.72,2.72,0,0,1,1.38-.35,2.57,2.57,0,0,1,1,.18,2,2,0,0,1,.76.55A2.12,2.12,0,0,1,209,69a11.66,11.66,0,0,1,.12,2.06V72c0,.43,0,.87,0,1.33s0,.93.06,1.44l-.62-.06-.53,0-.53,0-.58.06c0-.66.08-1.28.1-1.84s0-1.09,0-1.58a6,6,0,0,0-.26-2.22,1,1,0,0,0-1-.53,1,1,0,0,0-1,.53,4.16,4.16,0,0,0-.29,1.85v2.41c0,.23,0,.64.05,1.23a1,1,0,0,1,0,.15l-.6-.06-.53,0-.54,0-.59.06q.06-.86.09-1.65c0-.53,0-1,0-1.51a7.17,7.17,0,0,0-.26-2.5,1,1,0,0,0-.95-.51,1,1,0,0,0-1,.52A4.24,4.24,0,0,0,200.1,71v2.41c0,.24,0,.65.06,1.24v.14l-.56-.06-.53,0-.52,0Z"/><path class="cls-2" d="M211.14,74.81q0-1.22.06-2.13c0-.62,0-1.12,0-1.51s0-.9,0-1.5,0-1.31-.06-2.13l.5,0h1.13l.48,0v1a3.08,3.08,0,0,1,1-.89,2.54,2.54,0,0,1,1.23-.28,2.3,2.3,0,0,1,1.3.36,2.09,2.09,0,0,1,.8,1.05,3,3,0,0,1,1-1.06,2.72,2.72,0,0,1,1.38-.35,2.57,2.57,0,0,1,1,.18,1.88,1.88,0,0,1,.75.55,2,2,0,0,1,.44.93,11.38,11.38,0,0,1,.13,2.06V72c0,.43,0,.87,0,1.33s0,.93,0,1.44l-.61-.06-.54,0-.53,0-.57.06c0-.66.07-1.28.1-1.84s0-1.09,0-1.58a5.71,5.71,0,0,0-.27-2.22,1,1,0,0,0-.95-.53,1,1,0,0,0-1,.53,4.19,4.19,0,0,0-.28,1.85v2.41c0,.23,0,.64.05,1.23,0,.07,0,.12,0,.15l-.6-.06-.54,0-.53,0-.6.06q.06-.86.09-1.65c0-.53,0-1,0-1.51a6.92,6.92,0,0,0-.26-2.5,1,1,0,0,0-1-.51,1,1,0,0,0-.95.52,4.43,4.43,0,0,0-.28,1.86v2.41c0,.24,0,.65.05,1.24a.32.32,0,0,1,0,.14l-.55-.06-.54,0-.51,0Z"/><path class="cls-2" d="M223.81,71.18a4,4,0,0,1,6.62-2.84,3.86,3.86,0,0,1,1,2.84,3.81,3.81,0,1,1-7.61,0Zm2.23,0a5.81,5.81,0,0,0,.36,2.43,1.39,1.39,0,0,0,2.42,0,5.62,5.62,0,0,0,.37-2.43,5.67,5.67,0,0,0-.37-2.44,1.38,1.38,0,0,0-2.42,0A5.89,5.89,0,0,0,226,71.18Z"/><path class="cls-2" d="M232.76,74.81c0-.67.07-1.31.09-1.9s0-1.17,0-1.72,0-1.23,0-1.84,0-1.21-.09-1.81l.5,0h1.1l.47,0v1a3.15,3.15,0,0,1,1-.91,2.8,2.8,0,0,1,1.3-.3,2.61,2.61,0,0,1,1,.19,2.26,2.26,0,0,1,.78.55,2,2,0,0,1,.36.73,7.34,7.34,0,0,1,.1,1.49v.78c0,.43,0,.8,0,1.12,0,.48,0,.92,0,1.34s0,.83.07,1.23l-.59-.06-.54,0-.53,0-.59.06c0-.43.06-1,.08-1.55s0-1.26,0-2a5.2,5.2,0,0,0-.27-2.13,1,1,0,0,0-1-.48,1,1,0,0,0-1,.57,4.45,4.45,0,0,0-.3,1.93c0,.42,0,.94,0,1.55s0,1.31.06,2.1l-.56-.06-.53,0-.53,0Z"/><path class="cls-2" d="M243.64,74.81c-.43-1.67-.92-3.37-1.44-5.09s-1.1-3.5-1.72-5.29l.61,0,.68,0,.68,0,.6,0c.29,1.27.61,2.54.95,3.8s.7,2.53,1.09,3.78c.48-1.38.93-2.69,1.35-3.94s.84-2.45,1.23-3.64l.36,0,.4,0,.41,0,.37,0c.35,1.2.73,2.42,1.14,3.67s.84,2.51,1.3,3.81c.42-1.22.82-2.45,1.19-3.69s.71-2.51,1-3.79l.33,0,.37,0,.37,0,.32,0q-.81,2.31-1.66,4.89c-.57,1.73-1.17,3.55-1.78,5.49l-.41-.06-.38,0-.36,0-.42.06c-.36-1.17-.73-2.37-1.14-3.59s-.84-2.48-1.31-3.76c-.46,1.15-.9,2.34-1.33,3.57s-.86,2.49-1.28,3.78c-.13,0-.27,0-.4-.06l-.37,0-.37,0Z"/><path class="cls-2" d="M257.8,71.19a3.25,3.25,0,0,0,.62,2.09,2.08,2.08,0,0,0,1.69.77,2.87,2.87,0,0,0,1-.18,3.61,3.61,0,0,0,.94-.54l.14.11-.33.86a3.5,3.5,0,0,1-1.12.52,5.51,5.51,0,0,1-1.39.17,3.7,3.7,0,0,1-2.78-1,4,4,0,0,1-1-2.9,3.66,3.66,0,0,1,1-2.68,3.56,3.56,0,0,1,2.65-1,3.18,3.18,0,0,1,2.4.87,3.45,3.45,0,0,1,.83,2.5V71c0,.07,0,.13,0,.19Zm0-.74h2.57a1.62,1.62,0,0,1,0-.21c0-.08,0-.13,0-.16a3.09,3.09,0,0,0-.31-1.56.94.94,0,0,0-.88-.52,1.16,1.16,0,0,0-1,.6,3.35,3.35,0,0,0-.36,1.71Z"/><path class="cls-2" d="M267.5,73.85a2.33,2.33,0,0,1-.86.85,2.53,2.53,0,0,1-1.2.29,2,2,0,0,1-1.5-.56,2.13,2.13,0,0,1-.55-1.55,1.79,1.79,0,0,1,.39-1.19A2.58,2.58,0,0,1,265,71l.77-.24a6.48,6.48,0,0,0,1.62-.66s0-.06,0-.1v-.16a1.5,1.5,0,0,0-.4-1.1,1.38,1.38,0,0,0-1-.4,1.55,1.55,0,0,0-.93.29,2.74,2.74,0,0,0-.78.88q-.11-.36-.18-.57c-.05-.15-.1-.28-.15-.4a5.56,5.56,0,0,1,1.33-.88,3.62,3.62,0,0,1,1.38-.28,3.09,3.09,0,0,1,2.09.63,2.24,2.24,0,0,1,.73,1.8v.08l0,2.65v.29a2.32,2.32,0,0,0,.2,1.19,1,1,0,0,0,.8.26h0v.38a4.47,4.47,0,0,1-.81.25,4.41,4.41,0,0,1-.79.08,1.36,1.36,0,0,1-.9-.28A1.31,1.31,0,0,1,267.5,73.85Zm-.07-3a3.13,3.13,0,0,0-1.52.65,1.6,1.6,0,0,0-.47,1.22,1.67,1.67,0,0,0,.24,1,.8.8,0,0,0,.7.32.92.92,0,0,0,.78-.36,1.73,1.73,0,0,0,.27-1.05Z"/><path class="cls-2" d="M271.49,74.81c0-.86.06-1.75.08-2.68s0-1.93,0-3,0-2.16,0-3.09-.05-1.81-.08-2.64a5.87,5.87,0,0,0,.62.08l.5,0,.52,0c.18,0,.39,0,.62-.08,0,.86-.07,1.75-.09,2.68s0,1.93,0,3,0,2.16,0,3.09,0,1.81.09,2.64a4.37,4.37,0,0,0-.54-.08,5.35,5.35,0,0,0-.58,0,5.54,5.54,0,0,0-.59,0A4.85,4.85,0,0,0,271.49,74.81Z"/><path class="cls-2" d="M275.83,68.39h-.74l-.29,0a1,1,0,0,0,0-.16v-.49c0-.05,0-.1,0-.15l.09,0,.77.05h.17a1.55,1.55,0,0,0,0-.22,3.56,3.56,0,0,0,0-.37c0-.19,0-.4,0-.63s0-.5,0-.83c.35-.13.7-.27,1-.42s.67-.3,1-.46l.16.13c0,.57-.05,1.06-.06,1.45s0,.68,0,.88v.48l.77,0,.7,0c0,.11,0,.19,0,.24a.76.76,0,0,0,0,.15c0,.09,0,.2,0,.35s0,0,0,0l-.47,0h-1c0,.07,0,.19,0,.35,0,1.05-.05,1.8-.05,2.24v.61a7.54,7.54,0,0,0,.17,2.16.64.64,0,0,0,.66.42,4,4,0,0,0,.87-.16h0v.56a5.44,5.44,0,0,1-.92.33,3.46,3.46,0,0,1-.82.1,2,2,0,0,1-1.49-.51,2.07,2.07,0,0,1-.51-1.5s0-.46,0-1.3,0-1.67,0-2.49Z"/><path class="cls-2" d="M280.49,74.81c.05-.54.08-1.2.1-2s0-1.93,0-3.42,0-2.82,0-3.7,0-1.65-.1-2.29l.59.09.52,0a4.89,4.89,0,0,0,.54,0l.57-.09c0,.42-.09.86-.11,1.34s0,1,0,1.53v2.36a2.71,2.71,0,0,1,1-.94,2.79,2.79,0,0,1,1.34-.32,2.56,2.56,0,0,1,1,.19,2,2,0,0,1,.76.55,1.76,1.76,0,0,1,.38.76,6.43,6.43,0,0,1,.11,1.46v.78c0,.43,0,.8,0,1.12,0,.56,0,1,0,1.44s0,.78.07,1.13l-.6-.06-.52,0-.53,0-.59.06c0-.43.06-1,.08-1.55s0-1.26,0-2a5.45,5.45,0,0,0-.26-2.13,1,1,0,0,0-1-.48,1,1,0,0,0-1,.57,4.45,4.45,0,0,0-.3,1.93c0,.47,0,1,0,1.64s0,1.29.07,2c-.19,0-.38,0-.57-.06l-.53,0-.53,0Z"/><path class="cls-2" d="M179.39,91.75c.12-.78.23-1.45.31-2s.15-.95.18-1.19l1-7.18.31,0h.7l.32,0c.55,1.22,1.11,2.41,1.7,3.59s1.19,2.35,1.81,3.51q.9-1.68,1.77-3.45c.58-1.19,1.14-2.4,1.7-3.65l.33,0h.73l.33,0,.87,7.27c.09.8.18,1.43.25,1.89s.15.87.23,1.22l-.69,0-.6,0-.6,0-.65,0a1.39,1.39,0,0,1,0-.15c0-1.07-.08-1.72-.11-2l-.49-4.84c-.57,1.09-1.14,2.21-1.7,3.36s-1.16,2.36-1.75,3.61l-.11,0h-.39l-.12,0c-.58-1.23-1.16-2.41-1.72-3.53S181.83,86,181.28,85l-.36,3.16v.12c-.19,1.63-.28,2.79-.29,3.45l-.32,0-.29,0-.3,0Z"/><path class="cls-2" d="M197.12,90.8a2.33,2.33,0,0,1-2.06,1.14,2,2,0,0,1-1.5-.57,2.16,2.16,0,0,1-.55-1.55,1.77,1.77,0,0,1,.39-1.18,2.58,2.58,0,0,1,1.21-.74c.18-.06.43-.15.77-.25A6.85,6.85,0,0,0,197,87a.34.34,0,0,1,0-.1v-.16a1.52,1.52,0,0,0-.39-1.1,1.39,1.39,0,0,0-1-.41,1.63,1.63,0,0,0-.93.29,2.71,2.71,0,0,0-.77.88l-.19-.57-.15-.4a5.26,5.26,0,0,1,1.34-.87,3.39,3.39,0,0,1,1.37-.28,3.14,3.14,0,0,1,2.1.63,2.27,2.27,0,0,1,.73,1.8v.07L199,89.43v.29a2.15,2.15,0,0,0,.21,1.19.94.94,0,0,0,.79.26h.05v.38a3.9,3.9,0,0,1-.8.25,3.85,3.85,0,0,1-.8.09,1.41,1.41,0,0,1-.89-.28A1.38,1.38,0,0,1,197.12,90.8Zm-.07-3a3.22,3.22,0,0,0-1.52.66,1.57,1.57,0,0,0-.47,1.21,1.63,1.63,0,0,0,.24,1,.81.81,0,0,0,.7.33.92.92,0,0,0,.78-.36,1.75,1.75,0,0,0,.27-1Z"/><path class="cls-2" d="M202.16,92.1V92a1.4,1.4,0,0,1-.72-.45,1.15,1.15,0,0,1-.25-.75,1.4,1.4,0,0,1,.39-1,3.18,3.18,0,0,1,1.13-.75V88.9a2.63,2.63,0,0,1-1.47-.74,2.07,2.07,0,0,1-.49-1.42,2.15,2.15,0,0,1,.85-1.78,3.58,3.58,0,0,1,2.28-.67l1,.06c.59.05,1.13.07,1.63.07h.65l.72,0v.74l-1.27,0h-.23a1.64,1.64,0,0,1,.59.64,2,2,0,0,1,.2.91,2.15,2.15,0,0,1-.91,1.85,4.2,4.2,0,0,1-2.52.66h-.25a.78.78,0,0,0-.49.23.73.73,0,0,0-.18.5c0,.46.72.72,2.16.77h.08l.19,0a4.75,4.75,0,0,1,1.78.29,1.73,1.73,0,0,1,.7.72,2.31,2.31,0,0,1,.25,1.07,2.79,2.79,0,0,1-1.16,2.3,4.83,4.83,0,0,1-3,.89,4.53,4.53,0,0,1-2.37-.52,1.61,1.61,0,0,1-.85-1.44,1.65,1.65,0,0,1,.38-1.12A2.66,2.66,0,0,1,202.16,92.1Zm.66.09a1.46,1.46,0,0,0-.58.55,1.68,1.68,0,0,0-.2.81,1.6,1.6,0,0,0,.52,1.25,2,2,0,0,0,1.41.46,2.72,2.72,0,0,0,1.61-.42,1.36,1.36,0,0,0,.59-1.17,1.28,1.28,0,0,0-.38-1,2,2,0,0,0-1.22-.37Zm0-5.5a2.73,2.73,0,0,0,.27,1.38,1,1,0,0,0,.86.43.93.93,0,0,0,.88-.46,3.28,3.28,0,0,0,.26-1.52,2.21,2.21,0,0,0-.27-1.22.91.91,0,0,0-.82-.4,1,1,0,0,0-.87.47A2.43,2.43,0,0,0,202.82,86.69Z"/><path class="cls-2" d="M212.59,90.8a2.33,2.33,0,0,1-2.06,1.14,2,2,0,0,1-1.5-.57,2.11,2.11,0,0,1-.55-1.55,1.77,1.77,0,0,1,.39-1.18,2.58,2.58,0,0,1,1.21-.74c.18-.06.43-.15.77-.25a6.56,6.56,0,0,0,1.62-.65s0-.07,0-.1v-.16a1.52,1.52,0,0,0-.39-1.1,1.41,1.41,0,0,0-1-.41,1.63,1.63,0,0,0-.93.29,2.85,2.85,0,0,0-.78.88l-.18-.57-.15-.4a5.21,5.21,0,0,1,1.33-.87,3.44,3.44,0,0,1,1.38-.28,3.09,3.09,0,0,1,2.09.63,2.24,2.24,0,0,1,.74,1.8v.07l-.05,2.65v.29a2.27,2.27,0,0,0,.2,1.19,1,1,0,0,0,.8.26h.05v.38a3.9,3.9,0,0,1-.8.25,3.85,3.85,0,0,1-.8.09,1.44,1.44,0,0,1-.9-.28A1.36,1.36,0,0,1,212.59,90.8Zm-.07-3a3.22,3.22,0,0,0-1.52.66,1.57,1.57,0,0,0-.47,1.21,1.63,1.63,0,0,0,.24,1,.81.81,0,0,0,.7.33.92.92,0,0,0,.78-.36,1.75,1.75,0,0,0,.27-1Z"/><path class="cls-2" d="M215.73,91.75v-.24c.56-.86,1.45-2.2,2.65-4l1.42-2.17-.74,0h-.51c-.41,0-1.06,0-2,0h-.17a1,1,0,0,0,0-.16,1.78,1.78,0,0,0,0-.26,1.86,1.86,0,0,0,0-.26.78.78,0,0,0,0-.16l1.43,0,1.59,0,1.58,0,1.38,0v.19c-.36.53-.85,1.29-1.49,2.26l-2.56,4,.82,0h.52c.45,0,.9,0,1.34,0s.87,0,1.3-.07c0,.1,0,.18,0,.25v.37q0,.1,0,.3l-1.45,0-1.79,0-1.82,0Z"/><path class="cls-2" d="M223.67,81.75a1.16,1.16,0,0,1,1.16-1.15,1.09,1.09,0,0,1,.8.34,1.17,1.17,0,0,1,0,1.63,1.17,1.17,0,0,1-1.63,0A1.12,1.12,0,0,1,223.67,81.75Zm0,10c0-.77.06-1.45.08-2s0-1.1,0-1.6,0-1.16,0-1.76,0-1.22-.07-1.88c.17,0,.35,0,.54,0h1.17c.19,0,.37,0,.53,0,0,.66-.06,1.29-.07,1.88s0,1.18,0,1.76,0,1,0,1.61,0,1.24.07,2l-.56,0-.56,0-.55,0Z"/><path class="cls-2" d="M227.85,91.75c0-.67.07-1.3.09-1.9s0-1.17,0-1.72,0-1.23,0-1.83-.05-1.21-.09-1.81l.49,0,.55,0,.55,0,.47,0v1.05a3.12,3.12,0,0,1,1.05-.92,2.86,2.86,0,0,1,1.3-.29,2.53,2.53,0,0,1,1,.19,2,2,0,0,1,.78.55,1.73,1.73,0,0,1,.36.73,7.09,7.09,0,0,1,.11,1.49c0,.1,0,.36,0,.78s0,.8,0,1.12c0,.47,0,.92,0,1.34s0,.83.08,1.22l-.6,0-.54,0-.53,0-.59,0c0-.43.06-.94.09-1.54s0-1.26,0-2a5.48,5.48,0,0,0-.26-2.13,1,1,0,0,0-1-.48,1,1,0,0,0-1,.57,4.51,4.51,0,0,0-.3,1.93c0,.43,0,1,0,1.55s0,1.31.06,2.1l-.55,0-.54,0-.52,0Z"/><path class="cls-2" d="M238.22,88.14a3.22,3.22,0,0,0,.63,2.09,2.06,2.06,0,0,0,1.68.77,2.83,2.83,0,0,0,1-.18,3.45,3.45,0,0,0,.94-.54l.15.11-.34.86a3.66,3.66,0,0,1-1.11.51,5.21,5.21,0,0,1-1.4.18,3.65,3.65,0,0,1-2.77-1A4,4,0,0,1,236,88a3.73,3.73,0,0,1,1-2.69,3.55,3.55,0,0,1,2.65-1,3.17,3.17,0,0,1,2.4.87,3.44,3.44,0,0,1,.84,2.49,2.45,2.45,0,0,1,0,.3,1,1,0,0,1,0,.18Zm0-.75h2.57s0-.12,0-.2a1.26,1.26,0,0,0,0-.16,3.22,3.22,0,0,0-.3-1.56,1,1,0,0,0-.89-.53,1.14,1.14,0,0,0-1,.6,3.28,3.28,0,0,0-.37,1.72Z"/><path class="cls-2" d="M210.81,49.67v1.64h-12V54h-3.14l0-18.69c-.5.79-1,1.57-1.53,2.29l-1-.75a27.31,27.31,0,0,0,1.14-2.64l-1.68,1.53a23.25,23.25,0,0,0-2-3.39,23.56,23.56,0,0,1-2.32,3.85H189v3.36h5.92v1.6H189v1.29a29.47,29.47,0,0,1,5.67,3.88l-2.1,2.36A52.89,52.89,0,0,0,189,44.18v10h-3.07V44.89a28.43,28.43,0,0,1-6.67,6.92l-.74-1a30.74,30.74,0,0,0,6.66-9.59h-5.88v-1.6h6.63V36.22h.93a25.27,25.27,0,0,0,2.6-9.12l2.89.71a17.78,17.78,0,0,1-1,3.1,15,15,0,0,1,3.21,2.68c1.25-3.64,1.67-7.49,2.21-12.7l3.24.64a35.29,35.29,0,0,1-1.28,6.82h11.59V30h-5v4.78h4.1v1.6h-4.1v5.56h4.13V43.5h-4.13v6.17ZM179.86,37.83l-1-.82A31.29,31.29,0,0,0,182.46,27l2.89.68a17.24,17.24,0,0,1-1,3,18.14,18.14,0,0,1,3.42,3l-2,1.93a38.7,38.7,0,0,0-2-3.53A25,25,0,0,1,179.86,37.83Zm15-11.13H179.47V25.1h7.95a40.43,40.43,0,0,0-3.92-3.57l.5-1.1a21.5,21.5,0,0,1,5.92,2.67l-1.43,2h6.35ZM202.29,30h-3.46v4.78h3.46Zm0,6.38h-3.46v5.56h3.46Zm0,7.17h-3.46v6.17h3.46Zm.93-15.65a51.91,51.91,0,0,0-1.86-6.57l1.14-.57a22.87,22.87,0,0,1,3.64,6Z"/><path class="cls-2" d="M230.47,28.56H218.59V27h5.46c-1.18-2-2.5-4.24-3.32-5.42l.89-.89a25.61,25.61,0,0,1,5.49,4.89L225.26,27h5.21Zm-10.84,4.85v-1.5h10v1.5Zm10,4.92h-10v-1.5h10Zm3.49,3.32,1.25.24c-.22,3.79-1,6.92-2.68,9.1l-2.38-1.78v4.31h-2.71v-2.1h-4.11V54h-2.78V41.79h9.6v7.06A13.38,13.38,0,0,0,233.14,41.65Zm-6.56,1.71h-4.07v6.49h4.07Zm12-14.8h-7.34V27h7.34V21h3.21v6h7.49v1.61h-7.49v6.17h7v1.6H232v-1.6h6.6Zm6.35,16.58c1.64,5.85,1.92,8.13-3.64,8.13-5.2,0-5.92-.39-5.92-4.24V39.76h3.14v8.7c0,1.42.32,1.89,2.57,1.89,2.57,0,2.6-.47,2.57-5.21Zm-7-8.7a24.91,24.91,0,0,1,6.35,3.92l-2.11,2.39a63.28,63.28,0,0,0-4.88-5.28Zm12.62,11.45-2.81,1.39a54.71,54.71,0,0,0-3-7.74l1-.68A25.18,25.18,0,0,1,250.54,47.89Z"/><path class="cls-2" d="M168.1,53.58a7.72,7.72,0,0,0-2-1.63l-.31-.16h0a6.58,6.58,0,0,0-1.5-.8c-.83-.22-1.71-.11-2.54-.29-1.17-.25-2.34-.54-3.52-.72a10.12,10.12,0,0,0-4.45.14,4.29,4.29,0,0,0-1.91,1,2.85,2.85,0,0,0-.5,1.47,7.12,7.12,0,0,0-.19,1.53,11,11,0,0,0,1.67,5.43A16.52,16.52,0,0,0,154.57,62a12.11,12.11,0,0,0,2.08,2.15,5.1,5.1,0,0,1,1.77,1.65c.34.55.38.71,1,1a11.72,11.72,0,0,0,3.34.47,18.25,18.25,0,0,0,4.43-.13c1.09-.19,1.3-1,2.18-1.47s1.25-.56,1.63-1.48C172.74,60,170.62,56.54,168.1,53.58Z"/></svg>