<svg id="圖層_1" data-name="圖層 1" xmlns="http://www.w3.org/2000/svg" viewBox="0 0 131 92"><defs><style>.cls-1{fill:#c0c3ca;}.cls-2{fill:#fff;}.cls-3{fill:#d30c18;}</style></defs><title>paywalllightbox0</title><ellipse class="cls-1" cx="67.56" cy="84.94" rx="62.92" ry="6.22"/><path class="cls-2" d="M104.26,81.88H26.84V32.34c0-1,1.11-1.61,2.14-1.61h73.73a1.42,1.42,0,0,1,1.55,1.61Z"/><path class="cls-3" d="M104.61,82.23H26.49V32.34c0-1.23,1.27-2,2.49-2h73.73a1.75,1.75,0,0,1,1.9,2Zm-77.42-.7h76.72V32.34c0-.86-.38-1.26-1.2-1.26H29c-.88,0-1.79.47-1.79,1.26Z"/><rect class="cls-2" x="29.88" y="34.32" width="71.89" height="43.69"/><path class="cls-3" d="M102.12,78.36H29.53V34h72.59Zm-71.89-.7h71.19v-43H30.23Z"/><path class="cls-2" d="M110.64,85.75H21.51c-1.4,0-3.73-1.66-3.73-1.66h96.59S112,85.75,110.64,85.75Z"/><path class="cls-3" d="M110.64,86.1H21.51c-1.49,0-3.83-1.66-3.93-1.73l.2-.63h96.59l.21.63C114.48,84.44,112.14,86.1,110.64,86.1ZM19,84.44a6.24,6.24,0,0,0,2.52,1h89.13a6.28,6.28,0,0,0,2.53-1Z"/><path class="cls-2" d="M114.21,84.09H17.72V81.8c0-.51.48-.75,1-.75h94.72c.52,0,.77.24.77.75Z"/><path class="cls-3" d="M114.56,84.44H17.37V81.8c0-.65.55-1.1,1.34-1.1h94.73a1,1,0,0,1,1.12,1.1Zm-96.49-.7h95.79V81.8c0-.31-.09-.4-.42-.4H18.71c-.06,0-.64,0-.64.4Z"/><path class="cls-2" d="M74.48,82.71H57.68c-1.4,0-1.4-1.66-1.4-1.66h19.6S75.88,82.71,74.48,82.71Z"/><path class="cls-3" d="M74.48,83.06H57.68a1.85,1.85,0,0,1-1.75-2V80.7h20.3v.35A1.85,1.85,0,0,1,74.48,83.06ZM56.67,81.4a1,1,0,0,0,1,1h16.8a1,1,0,0,0,1-1Z"/><rect class="cls-2" x="29.88" y="34.32" width="71.89" height="3.87"/><path class="cls-3" d="M102.12,38.54H29.53V34h72.59Zm-71.89-.7h71.19V34.67H30.23Z"/><path class="cls-3" d="M33.11,36.19a.93.93,0,0,1-1.85,0,.93.93,0,1,1,1.85,0Z"/><path class="cls-3" d="M36.05,36.19a.93.93,0,0,1-1.85,0,.93.93,0,1,1,1.85,0Z"/><path class="cls-3" d="M39,36.19a.93.93,0,0,1-1.85,0,.93.93,0,1,1,1.85,0Z"/><rect class="cls-3" x="40.39" y="42.06" width="6.83" height="2.77"/><path class="cls-3" d="M73.1,56.15h-11V52.23a3.76,3.76,0,0,1,3.76-3.76,3.72,3.72,0,0,1,2.65,1.1,3.77,3.77,0,0,1,1.1,2.66v1.56h2V52.23a5.8,5.8,0,0,0-11.59,0v3.92H58.55a1.73,1.73,0,0,0-1.73,1.73v5.49c0,4.52,4,8.19,9,8.19s9-3.67,9-8.19V57.88A1.73,1.73,0,0,0,73.1,56.15Zm-6.62,7.74L67,66.14H64.64l.53-2.25a1.77,1.77,0,1,1,1.31,0Z"/><rect class="cls-2" x="93.91" y="42.89" width="21.96" height="43.05" rx="2.94"/><path class="cls-3" d="M112.93,86.29H96.85A3.3,3.3,0,0,1,93.56,83V45.84a3.3,3.3,0,0,1,3.29-3.3h16.08a3.3,3.3,0,0,1,3.3,3.3V83A3.3,3.3,0,0,1,112.93,86.29ZM96.85,43.24a2.6,2.6,0,0,0-2.59,2.6V83a2.59,2.59,0,0,0,2.59,2.59h16.08a2.6,2.6,0,0,0,2.6-2.59V45.84a2.61,2.61,0,0,0-2.6-2.6Z"/><ellipse class="cls-2" cx="104.89" cy="83.27" rx="1.6" ry="1.52"/><path class="cls-3" d="M104.89,85.14a1.87,1.87,0,1,1,2-1.87A1.92,1.92,0,0,1,104.89,85.14Zm0-3a1.17,1.17,0,1,0,1.26,1.17A1.22,1.22,0,0,0,104.89,82.1Z"/><path class="cls-2" d="M106.64,45.81h-3.49a.15.15,0,0,1-.15-.14h0a.15.15,0,0,1,.15-.15h3.49a.15.15,0,0,1,.15.15h0A.15.15,0,0,1,106.64,45.81Z"/><path class="cls-3" d="M106.64,46.16h-3.49a.49.49,0,0,1-.5-.49.5.5,0,0,1,.5-.5h3.49a.5.5,0,0,1,.5.5A.49.49,0,0,1,106.64,46.16Z"/><path class="cls-2" d="M105.1,44.27a.2.2,0,0,0-.21-.19.19.19,0,0,0-.2.19.2.2,0,0,0,.2.2A.2.2,0,0,0,105.1,44.27Z"/><path class="cls-3" d="M104.89,44.82a.55.55,0,0,1-.55-.55.56.56,0,0,1,1.11,0A.56.56,0,0,1,104.89,44.82Zm0-.7a.15.15,0,0,0-.14.15c0,.17.29.17.29,0A.15.15,0,0,0,104.89,44.12Z"/><ellipse class="cls-2" cx="101.44" cy="45.67" rx="0.38" ry="0.36"/><path class="cls-3" d="M101.44,46.38a.72.72,0,1,1,.73-.71A.73.73,0,0,1,101.44,46.38Zm0-.71Z"/><rect class="cls-2" x="95.23" y="47.73" width="19.33" height="32.51"/><path class="cls-3" d="M114.91,80.58h-20V47.38h20Zm-19.33-.7h18.63V48.07H95.58Z"/><rect class="cls-3" x="96.97" y="49.18" width="5.99" height="2.44"/><path class="cls-3" d="M110.35,63.35h-8V60.52a2.71,2.71,0,0,1,5.42,0v1.13h1.47V60.52a4.18,4.18,0,0,0-8.36,0v2.83H99.85A1.25,1.25,0,0,0,98.6,64.6v4c0,3.27,2.91,5.91,6.5,5.91s6.5-2.64,6.5-5.91v-4A1.25,1.25,0,0,0,110.35,63.35Zm-4.77,5.59.38,1.62h-1.71l.38-1.62a1.27,1.27,0,1,1,1,0Z"/><rect class="cls-1" x="65.7" y="29.73" width="0.7" height="1"/><path class="cls-1" d="M32.71,58.74a7.13,7.13,0,0,0-1-1.63l.55-.44a7.58,7.58,0,0,1,1.07,1.79Zm-2.34-3a7.51,7.51,0,0,0-1.66-.93L29,54.2a7.94,7.94,0,0,1,1.82,1Zm-3.5-1.4a8.11,8.11,0,0,0-.86-.05h-1.1v-.69H26a7.3,7.3,0,0,1,.94,0Zm-13.2-.05a7,7,0,0,1-.79,0L13,53.6l.75,0h1.22v.69H13.67Zm9.24,0h-2v-.69h2Zm-4,0h-2v-.69h2Zm-8-.52a8.17,8.17,0,0,1-1.84-1l.41-.57a7.33,7.33,0,0,0,1.67.91ZM7.51,51.39a8.31,8.31,0,0,1-1.1-1.77l.64-.29a7.53,7.53,0,0,0,1,1.62Zm-1.7-3.77a9.06,9.06,0,0,1-.1-1.27v-.78h.7v.78a6.49,6.49,0,0,0,.1,1.16Zm.6-4h-.7v-2h.7Zm0-4h-.7V38.36c0-.27,0-.55,0-.82l.7.07c0,.25,0,.5,0,.75Zm.48-3.81-.65-.25a8.1,8.1,0,0,1,1-1.83l.57.41A7.33,7.33,0,0,0,6.89,35.76Zm2.21-3-.44-.54a7.77,7.77,0,0,1,1.78-1.1l.28.64A7.53,7.53,0,0,0,9.1,32.71Zm3.44-1.54-.11-.69a7.77,7.77,0,0,1,1.27-.1h.78v.7H13.7A7.46,7.46,0,0,0,12.54,31.17Zm4-.11-.05-.7A7.31,7.31,0,0,0,18.32,30l.23.66A8,8,0,0,1,16.51,31.06Zm3.91-1.33L20,29.15a7.42,7.42,0,0,0,1.43-1.25l.52.46A8.16,8.16,0,0,1,20.42,29.73Zm46-2h-.7v-2h.7Zm-43.25-1.1-.63-.31a7.36,7.36,0,0,0,.61-1.8l.69.13A8.11,8.11,0,0,1,23.15,26.63Zm43.25-2.9h-.7v-2h.7ZM24,22.59h-.7v-2H24ZM65.7,19.73a7.41,7.41,0,0,0-.26-1.88l.68-.19a8.46,8.46,0,0,1,.28,2.07ZM24.05,18.65l-.69-.1a7.77,7.77,0,0,1,.58-2l.64.28A7.61,7.61,0,0,0,24.05,18.65Zm40.66-2.56a7.4,7.4,0,0,0-1.16-1.51l.49-.49a7.85,7.85,0,0,1,1.28,1.65ZM25.57,15.2,25,14.76a7.88,7.88,0,0,1,1.5-1.44l.42.56A6.86,6.86,0,0,0,25.57,15.2ZM62,13.43a6.94,6.94,0,0,0-1.76-.72l.18-.68a8.08,8.08,0,0,1,1.93.79ZM28.6,13l-.25-.65a8.19,8.19,0,0,1,2-.5l.08.7A7.25,7.25,0,0,0,28.6,13Zm29.79-.5h-2v-.7h2Zm-4,0h-2v-.7h2Zm-4,0h-2v-.7h2Zm-4,0h-2v-.7h2Zm-4,0h-2v-.7h2Zm-4,0h-2v-.7h2Zm-4,0h-2v-.7h2Z"/><path class="cls-1" d="M34,61.62h-.7a7.57,7.57,0,0,0-.06-.95l.69-.09A7.27,7.27,0,0,1,34,61.62Z"/><circle class="cls-2" cx="9.13" cy="51.71" r="8.61" transform="translate(-35.6 24.2) rotate(-48.39)"/><path class="cls-3" d="M9.14,60.66A8.94,8.94,0,0,1,.31,50.15a8.95,8.95,0,0,1,10.38-7.26,8.9,8.9,0,0,1,5.78,3.68h0A9,9,0,0,1,9.14,60.66Zm0-17.21a8.26,8.26,0,1,0,4.75,15,8.25,8.25,0,0,0,2-11.5h0a8.18,8.18,0,0,0-5.33-3.39A7.9,7.9,0,0,0,9.11,43.45Z"/><rect class="cls-3" x="8.78" y="43.1" width="0.7" height="17.22" transform="matrix(0.82, -0.57, 0.57, 0.82, -28, 14.58)"/><path class="cls-3" d="M13,59.74c-.16,0-3.92-.47-7.45-5.51S2.86,45.5,2.9,45.34l.68.17s-.81,3.56,2.52,8.32S13,59,13.05,59Z"/><path class="cls-3" d="M15.46,58l-.68-.17s.82-3.56-2.51-8.32S5.35,44.3,5.32,44.3l.07-.7c.16,0,3.92.47,7.45,5.51S15.5,57.84,15.46,58Z"/><rect class="cls-3" x="0.52" y="51.36" width="17.22" height="0.7" transform="translate(-27.98 14.56) rotate(-34.95)"/><path class="cls-3" d="M7.17,60l-.62-.32a14.6,14.6,0,0,1,4.66-5A14.31,14.31,0,0,1,17.7,52l.08.69a13.69,13.69,0,0,0-6.17,2.55A13.92,13.92,0,0,0,7.17,60Z"/><path class="cls-3" d="M.9,51.64l-.08-.7A13.66,13.66,0,0,0,7,48.39a13.76,13.76,0,0,0,4.43-4.78l.62.33a14.54,14.54,0,0,1-4.65,5A14.4,14.4,0,0,1,.9,51.64Z"/><rect class="cls-2" x="54.2" y="11.66" width="3.59" height="2.81"/><path class="cls-3" d="M58.14,14.81H53.85v-3.5h4.29Zm-3.59-.7h2.89V12H54.55Z"/><rect class="cls-2" x="58.57" y="8.11" width="3.59" height="6.36"/><path class="cls-3" d="M62.52,14.81h-4.3v-7h4.3Zm-3.6-.7h2.9V8.46h-2.9Z"/><rect class="cls-2" x="62.95" y="0.84" width="3.59" height="13.63"/><path class="cls-3" d="M66.89,14.81H62.6V.49h4.29Zm-3.59-.7h2.89V1.19H63.3Z"/><rect class="cls-2" x="67.33" y="4.96" width="3.59" height="9.5"/><path class="cls-3" d="M71.27,14.81H67V4.61h4.29Zm-3.59-.7h2.89V5.32H67.68Z"/><rect class="cls-3" x="53.42" y="15.76" width="18.28" height="1.08"/><path class="cls-1" d="M119.4,57.15h-2v-.7h2Zm-4,0h-2v-.7h2Zm6,0,0-.7a8,8,0,0,0,1.89-.32l.19.67A8.8,8.8,0,0,1,121.42,57.14Zm4-1.16-.34-.61a8.12,8.12,0,0,0,1.53-1.14l.48.51A9.16,9.16,0,0,1,125.37,56Zm3-2.83-.58-.38a8.56,8.56,0,0,0,.86-1.71l.66.24A9.2,9.2,0,0,1,128.38,53.15Zm1.41-3.87-.69-.08c0-.31.05-.63.05-1a7.89,7.89,0,0,0-.06-1l.7-.08a9.24,9.24,0,0,1,.06,1A8.77,8.77,0,0,1,129.79,49.28Zm-1.14-3.86a7.8,7.8,0,0,0-.87-1.7l.59-.39a9.2,9.2,0,0,1,.94,1.85Zm-2.1-3.16A8.26,8.26,0,0,0,125,41.12l.35-.6A8.37,8.37,0,0,1,127,41.75Zm-3.31-1.88a8,8,0,0,0-1.88-.32l0-.7a9,9,0,0,1,2,.35Zm-3.87-.33h-2v-.7h2Zm-4,0h-2v-.7h2Zm-4,0h-2v-.7h2Zm-4,0h-2v-.7h2Zm-4,0h-2v-.7h2Zm-4,0h-2v-.7h2Zm-4,0h-2v-.7h2Z"/></svg>