<svg id="圖層_1" data-name="圖層 1" xmlns="http://www.w3.org/2000/svg" viewBox="0 0 122 80"><defs><style>.cls-1{fill:#c0c3ca;}.cls-2{fill:#d30c18;}.cls-3{fill:#fff;}</style></defs><title>paywalllightbox1</title><ellipse class="cls-1" cx="63.48" cy="70.98" rx="58.34" ry="8.83"/><rect class="cls-2" x="98.94" y="20.94" width="0.91" height="5.34" transform="translate(37.69 -57.81) rotate(39.48)"/><rect class="cls-2" x="107.97" y="45.62" width="0.91" height="5.34" transform="translate(150.82 -62.57) rotate(86.92)"/><path class="cls-1" d="M44.16,73.41c-.46-.49-.9-1-1.33-1.51l.53-.45c.43.5.87,1,1.31,1.48Zm-2.59-3.09c-.41-.53-.8-1.08-1.19-1.63l.58-.4c.37.55.76,1.08,1.16,1.61ZM39.28,67c-.35-.57-.7-1.15-1-1.74l.61-.34c.32.58.66,1.15,1,1.71Zm71.88-2.69-.62-.33c.31-.58.61-1.17.89-1.77l.63.3Q111.63,63.43,111.16,64.31Zm-73.84-.83c-.3-.6-.58-1.21-.85-1.83l.64-.28c.27.61.54,1.21.84,1.8Zm75.55-2.82-.65-.27c.25-.61.49-1.22.71-1.85l.66.24C113.37,59.41,113.12,60,112.87,60.66Zm-77.16-.88c-.24-.62-.47-1.26-.68-1.9l.67-.22c.21.63.43,1.26.66,1.87Zm78.51-2.92-.67-.2c.2-.63.37-1.27.54-1.91l.67.17C114.6,55.57,114.42,56.22,114.22,56.86ZM34.45,56c-.17-.65-.34-1.3-.48-2l.68-.16c.14.65.3,1.29.48,1.93Zm80.76-3-.69-.14c.14-.64.25-1.29.35-2l.69.11C115.46,51.63,115.34,52.3,115.21,53ZM33.57,52c-.11-.66-.21-1.33-.29-2l.69-.08c.08.65.18,1.31.29,2ZM115.83,49l-.7-.08c.07-.66.13-1.32.16-2l.7.05C116,47.62,115.9,48.29,115.83,49ZM33.07,48c0-.67-.08-1.34-.1-2l.7,0c0,.67,0,1.33.1,2Zm83-3.08h-.7v-.52c0-.49,0-1,0-1.46l.69,0c0,.49,0,1,0,1.48ZM33.66,44H33c0-.67,0-1.34.08-2l.7.05C33.7,42.68,33.67,43.34,33.66,44Zm81.57-3c-.06-.66-.13-1.32-.21-2l.69-.09c.09.66.16,1.33.22,2ZM33.92,40l-.7-.07.12-1,.15-1,.7.11q-.09.49-.15,1C34,39.4,34,39.72,33.92,40Zm80.79-3c-.11-.65-.25-1.3-.39-1.94l.68-.16c.15.65.28,1.31.4,2Zm-80.16-.91L33.86,36c.14-.66.29-1.32.46-2l.68.18C34.83,34.84,34.68,35.48,34.55,36.13Zm79.28-3c-.18-.63-.38-1.27-.59-1.89l.67-.22c.21.63.41,1.28.59,1.92Zm-78.29-.89-.67-.2c.2-.65.41-1.29.64-1.92l.66.24C36,31,35.73,31.66,35.54,32.29Zm77-2.86c-.24-.62-.49-1.23-.76-1.83l.64-.28c.27.61.53,1.23.78,1.85Zm-75.68-.86-.64-.27c.25-.63.53-1.24.82-1.84l.63.3C37.42,27.35,37.15,28,36.89,28.57ZM111,25.81c-.3-.59-.61-1.18-.93-1.75l.61-.34c.33.58.64,1.17.94,1.77ZM38.6,25,38,24.65c.32-.59.65-1.18,1-1.75l.6.35C39.24,23.82,38.91,24.4,38.6,25ZM109,22.36c-.35-.56-.71-1.11-1.09-1.66l.57-.4q.59.84,1.11,1.68Zm-68.38-.78-.58-.39c.37-.56.76-1.11,1.15-1.65l.57.41C41.39,20.48,41,21,40.64,21.58Zm66.12-2.47c-.41-.53-.82-1-1.25-1.54l.53-.46c.44.51.86,1,1.27,1.57ZM43,18.38l-.55-.44c.43-.52.87-1,1.31-1.53l.53.46C43.84,17.37,43.41,17.87,43,18.38Zm61.19-2.29c-.45-.49-.92-1-1.39-1.42l.49-.5q.72.71,1.41,1.44Zm-58.54-.66-.5-.49c.47-.48,1-.95,1.45-1.4l.47.51C46.59,14.5,46.11,15,45.65,15.43Zm55.69-2.1c-.5-.44-1-.86-1.52-1.28l.44-.54c.52.42,1,.85,1.54,1.29Zm-52.77-.58-.45-.54c.51-.43,1-.85,1.58-1.26l.42.56C49.59,11.91,49.07,12.32,48.57,12.75Zm49.67-1.89c-.54-.39-1.08-.76-1.64-1.12L97,9.15c.57.37,1.12.74,1.67,1.14Zm-46.51-.51-.4-.57c.56-.38,1.12-.75,1.7-1.1l.36.6C52.83,9.62,52.27,10,51.73,10.35ZM94.91,8.7c-.57-.33-1.15-.65-1.74-.95l.32-.63c.6.31,1.19.64,1.77,1ZM55.1,8.28l-.33-.61c.58-.33,1.18-.64,1.78-.93l.31.63C56.27,7.66,55.68,8,55.1,8.28Zm36.28-1.4c-.6-.27-1.21-.53-1.82-.78l.25-.65c.63.25,1.25.51,1.86.79ZM58.66,6.54l-.27-.64c.61-.27,1.24-.52,1.87-.75l.24.65C59.88,6,59.27,6.28,58.66,6.54Zm29-1.12c-.63-.21-1.26-.41-1.9-.59l.2-.68c.65.19,1.29.39,1.92.61ZM62.37,5.15l-.21-.66c.64-.21,1.28-.4,1.93-.57l.18.68C63.63,4.77,63,5,62.37,5.15Zm21.52-.82C83.25,4.18,82.6,4,82,3.92l.12-.69c.67.13,1.32.26,2,.42ZM66.2,4.14l-.15-.69c.65-.14,1.31-.26,2-.37l.11.69C67.49,3.88,66.84,4,66.2,4.14ZM80,3.61c-.66-.08-1.32-.16-2-.21l.06-.7c.66.06,1.33.13,2,.22ZM70.1,3.5,70,2.81q1-.12,2-.18l0,.7C71.41,3.37,70.76,3.43,70.1,3.5ZM76,3.28l-1.45,0h-.53v-.7h.54l1.47,0Z"/><rect class="cls-2" x="74.19" y="8.19" width="0.91" height="5.34"/><rect class="cls-2" x="83.15" y="32.13" width="1.45" height="19.87" rx="0.72" transform="translate(100.89 -50.21) rotate(73.81)"/><rect class="cls-2" x="78.16" y="18.81" width="1.45" height="28.73" rx="0.72" transform="translate(17.79 -26.75) rotate(21.64)"/><polygon class="cls-3" points="38.79 76.95 3.2 73.28 30.53 56.11 57.31 56.11 38.79 76.95"/><path class="cls-2" d="M38.79,77.3h0L3.16,73.63A.35.35,0,0,1,3,73L30.34,55.81a.41.41,0,0,1,.19-.05H57.31a.35.35,0,0,1,.27.58L39.06,77.18A.4.4,0,0,1,38.79,77.3ZM4.24,73l34.41,3.54L56.53,56.46H30.63Z"/><path class="cls-3" d="M25.36,52.15s18.5-6.79,27.36,3.73L33.44,74.32S14.18,65.68.18,70.81Z"/><path class="cls-2" d="M33.44,74.67a.32.32,0,0,1-.14,0c-.19-.08-19.3-8.52-33-3.5A.35.35,0,0,1-.13,71a.34.34,0,0,1,.1-.44L25.15,51.87l.08,0c.19-.07,18.84-6.76,27.76,3.82a.35.35,0,0,1,0,.48L33.68,74.58A.34.34,0,0,1,33.44,74.67ZM10.26,68.85c10.79,0,21.46,4.36,23.11,5.06L52.24,55.85c-8.47-9.6-25.7-3.74-26.72-3.38L2.07,69.84A31.62,31.62,0,0,1,10.26,68.85Z"/><polygon class="cls-3" points="33.44 74.32 53.24 55.82 60.5 31.64 36.4 45.32 33.44 74.32"/><path class="cls-2" d="M33.44,74.67a.4.4,0,0,1-.15,0,.38.38,0,0,1-.2-.35l3-29a.32.32,0,0,1,.17-.27L60.33,31.33a.35.35,0,0,1,.39,0,.34.34,0,0,1,.11.38L53.57,55.92a.38.38,0,0,1-.09.15L33.68,74.58A.36.36,0,0,1,33.44,74.67Zm3.29-29.13L33.88,73.43l19-17.8,7-23.26Z"/><polygon class="cls-3" points="34.39 73.8 54.45 56.11 68.43 36.15 45.27 51.03 34.39 73.8"/><path class="cls-2" d="M34.39,74.15a.33.33,0,0,1-.21-.07.34.34,0,0,1-.1-.43L45,50.88a.29.29,0,0,1,.13-.14L68.24,35.85a.35.35,0,0,1,.44,0,.36.36,0,0,1,0,.45l-14,20L34.62,74.07A.38.38,0,0,1,34.39,74.15ZM45.55,51.27,35.45,72.41,54.22,55.85,67.13,37.4Z"/><polygon class="cls-3" points="33.44 74.32 53.24 55.82 79.82 57.37 65.24 78.6 33.44 74.32"/><path class="cls-2" d="M65.24,79h0L33.39,74.67a.35.35,0,0,1-.19-.6L53,55.56a.39.39,0,0,1,.26-.09L79.84,57a.38.38,0,0,1,.3.2.36.36,0,0,1,0,.35L65.53,78.8A.35.35,0,0,1,65.24,79Zm-31-4.87,30.86,4.14,14.1-20.53L53.37,56.17Z"/><polygon class="cls-3" points="34 73.8 53.24 55.82 77.61 50.83 63.53 73.8 34 73.8"/><path class="cls-2" d="M63.53,74.15H34a.36.36,0,0,1-.33-.22.34.34,0,0,1,.09-.38L53,55.56a.39.39,0,0,1,.17-.09l24.37-5a.35.35,0,0,1,.35.15.33.33,0,0,1,0,.38L63.83,74A.35.35,0,0,1,63.53,74.15Zm-28.64-.7H63.34L76.89,51.33,53.4,56.14Z"/><polygon class="cls-3" points="32.23 73.8 53.24 55.82 76.67 42.76 61.51 65.85 32.23 73.8"/><path class="cls-2" d="M32.23,74.15a.38.38,0,0,1-.31-.18.35.35,0,0,1,.09-.43l21-18L76.5,42.45a.35.35,0,0,1,.43.07A.36.36,0,0,1,77,43L61.8,66a.35.35,0,0,1-.2.15l-29.27,8ZM75.6,43.76,53.41,56.12,33.64,73.06l27.65-7.51Z"/><polygon class="cls-3" points="33.31 73.51 53.74 54.33 73.41 38.71 52.73 63.66 33.31 73.51"/><path class="cls-2" d="M33.31,73.86a.32.32,0,0,1-.28-.15.35.35,0,0,1,0-.45L53.5,54.08,73.19,38.44a.35.35,0,0,1,.47,0,.36.36,0,0,1,0,.47L53,63.89a.33.33,0,0,1-.11.09L33.47,73.82A.29.29,0,0,1,33.31,73.86ZM71,41.08,54,54.61,35.33,72.09l17.17-8.7Z"/><path class="cls-2" d="M111,23.61l-3.5-13.32-2.31,1.8C90.67-3.22,67.73-3.48,50.22,9.7a42.52,42.52,0,0,0-17,34.2c1.45-9.06,6.68-22.47,14.31-28.21C64.61,2.84,86.26,1.62,100.68,15.6l-2.49,1.94Z"/></svg>